<?xml version="1.0" encoding="iso-8859-1"?>
<!-- Uploaded to: SVG Repo, www.svgrepo.com, Generator: SVG Repo Mixer Tools -->
<svg fill="#000000" height="800px" width="800px" version="1.1" id="Layer_1" xmlns="http://www.w3.org/2000/svg" xmlns:xlink="http://www.w3.org/1999/xlink" 
	 viewBox="0 0 508.055 508.055" xml:space="preserve">
<g>
	<g>
		<path d="M240.055,340.428c-0.4-2-2.8-3.2-4.8-2.8c-2,0.4-3.2,2.8-2.8,4.8c7.6,30.8-1.6,62.8-24,85.2
			c-31.6,31.6-168.4,64-199.2,71.2c6.8-30.8,39.6-167.6,71.2-199.2c22.4-22.4,54.4-31.6,85.2-24c2,0.8,4.4-0.8,4.8-2.8
			c0.8-2-0.8-4.4-2.8-4.8c-33.6-8-68.4,1.6-92.8,26c-37.2,37.2-73.2,202-74.8,209.2c0,1.2,0.4,2.8,1.2,3.6s1.6,1.2,2.8,1.2
			c0.4,0,0.4,0,0.8,0c6.8-1.2,172-37.6,209.2-74.8C238.455,408.828,248.055,374.028,240.055,340.428z"/>
	</g>
</g>
<g>
	<g>
		<path d="M506.855,70.828l-69.6-69.6c-1.6-1.6-4-1.6-5.6,0l-267.6,267.6c-1.6,1.6-1.6,4,0,5.6l69.6,69.6c0.8,0.8,1.6,1.2,2.8,1.2
			c0.8,0,2-0.4,2.8-1.2l267.6-267.6c0.8-0.8,1.2-1.6,1.2-2.8S507.655,71.628,506.855,70.828z M236.455,335.628l-64-64l262-262l64,64
			L236.455,335.628z"/>
	</g>
</g>
<g>
	<g>
		<path d="M241.255,291.228l-46.8-46.8c-1.6-1.6-4-1.6-5.6,0c-1.6,1.6-1.6,4,0,5.6l46.8,46.8c0.8,0.8,1.6,1.2,2.8,1.2
			c0.8,0,2-0.4,2.8-1.2C242.855,295.228,242.855,292.828,241.255,291.228z"/>
	</g>
</g>
<g>
	<g>
		<path d="M175.655,276.028c-28.8-3.2-60.4,9.2-84.8,33.6c-37.2,36.8-88.4,186.8-90.4,193.2c-0.8,1.2-0.4,2.8,0.8,4
			c0.8,0.8,1.6,1.2,2.8,1.2c0.4,0,0.8,0,1.2,0c1.2-0.4,94.4-32.4,153.2-63.6c2-1.2,2.8-3.6,1.6-5.6s-3.6-2.8-5.6-1.6
			c-48,26-120.4,52-144,60.4c11.2-32,54.8-151.6,86-182.4c22.8-22.4,52-34,78.4-31.2c2,0,4-1.6,4.4-3.6
			C179.255,278.428,177.655,276.428,175.655,276.028z"/>
	</g>
</g>
<g>
	<g>
		<path d="M232.455,332.428c-0.4-2.4-2.4-4-4.4-3.6c-2.4,0.4-4,2.4-3.6,4.4c3.2,26.4-8.4,55.6-31.2,78.4c-3.2,3.2-7.6,6.8-12.8,10.4
			c-2,1.2-2.4,3.6-1.2,5.6c0.8,0.8,2,1.6,3.2,1.6c0.8,0,1.6,0,2.4-0.8c6-4,10.4-7.6,14-11.2
			C223.255,392.828,235.655,361.228,232.455,332.428z"/>
	</g>
</g>
<g>
	<g>
		<path d="M188.855,288.828c-0.4-2.4-2.4-4-4.4-3.6c-23.2,2.4-51.2,18.4-75.2,42.4c-36.8,37.2-106,168.8-108.8,174.4
			c-0.8,1.6-0.4,3.6,0.8,4.8c0.8,0.8,1.6,1.2,2.8,1.2c0.8,0,1.2,0,2-0.4c0.8-0.4,100-52.4,151.6-90c1.6-1.2,2-4,0.8-5.6
			c-1.2-1.6-4-2-5.6-0.8c-40.8,29.6-111.6,68.4-139.2,83.2c18-33.6,71.6-131.2,101.2-160.8c22.8-22.8,49.6-38,70.4-40.4
			C187.655,292.828,189.255,291.228,188.855,288.828z"/>
	</g>
</g>
<g>
	<g>
		<path d="M219.255,319.228c-2,0-4,1.6-4.4,3.6c-2.4,20.8-18,48-40.4,70.4c-1.6,1.6-1.6,4,0,5.6c0.8,0.8,1.6,1.2,2.8,1.2
			s2-0.4,3.2-1.2c24-24.4,40-52.4,42.4-75.2C222.855,321.628,221.255,319.628,219.255,319.228z"/>
	</g>
</g>
<g>
	<g>
		<path d="M199.655,298.828c-1.2-2-3.6-2.8-5.6-1.6c-16,9.2-39.6,28.8-63.2,52.4c-36.8,36.4-128.8,150.8-130,152
			c-1.2,1.6-1.2,3.6,0.4,5.2c0.8,0.8,1.6,1.2,2.8,1.2c0.8,0,1.6-0.4,2.4,0c0.8-0.8,92.8-75.2,138-116.8c1.6-1.6,2-4,0.4-5.6
			c-1.6-1.6-4-2-5.6-0.4c-28.8,26-76,65.6-107.2,91.2c30.4-36.8,80-96.4,104.4-120.8c22.8-23.2,46.4-42.4,61.6-51.2
			C200.055,303.228,200.855,300.828,199.655,298.828z"/>
	</g>
</g>
<g>
	<g>
		<path d="M209.655,308.428c-2-0.8-4.4-0.4-5.6,1.6c-7.2,13.2-23.6,33.2-42.8,53.2c-1.6,1.6-1.6,4,0,5.6c0.8,0.8,2,1.2,2.8,1.2
			s2-0.4,3.2-1.2c20-20.8,36-40.8,44-54.8C212.055,312.028,211.655,309.628,209.655,308.428z"/>
	</g>
</g>
</svg>